<?xml version="1.0" encoding="UTF-8"?>
<!DOCTYPE svg PUBLIC "-//W3C//DTD SVG 1.1//EN" "http://www.w3.org/Graphics/SVG/1.1/DTD/svg11.dtd">
<svg xmlns="http://www.w3.org/2000/svg" version="1.1" width="420px" height="420px" style="shape-rendering:geometricPrecision; text-rendering:geometricPrecision; image-rendering:optimizeQuality; fill-rule:evenodd; clip-rule:evenodd" xmlns:xlink="http://www.w3.org/1999/xlink">
<g><path style="opacity:0.912" fill="#221f1b" d="M 261.5,61.5 C 248.7,55.2224 235.7,54.889 222.5,60.5C 218.86,57.1384 218.526,53.3051 221.5,49C 218.395,48.0152 215.562,46.5152 213,44.5C 211.234,45.2335 209.401,45.5668 207.5,45.5C 211.194,43.5876 215.194,43.0876 219.5,44C 225.5,47.3333 231.5,50.6667 237.5,54C 241.894,54.3028 246.227,54.9695 250.5,56C 254.787,56.81 258.454,58.6433 261.5,61.5 Z"/></g>
<g><path style="opacity:1" fill="#3d3a38" d="M 261.5,61.5 C 267.706,65.7657 274.039,69.7657 280.5,73.5C 281.601,74.5983 282.934,74.765 284.5,74C 287.423,71.9545 290.257,69.7879 293,67.5C 294.626,78.1746 290.126,81.6746 279.5,78C 273.242,74.0831 267.242,69.7497 261.5,65C 260.552,64.5172 259.552,64.3505 258.5,64.5C 254.151,63.2349 249.818,63.7349 245.5,66C 242.64,68.8604 239.806,71.6937 237,74.5C 234.138,78.4771 231.638,82.6438 229.5,87C 228.216,87.6838 227.049,87.5171 226,86.5C 219.956,93.7012 215.456,92.7012 212.5,83.5C 208.819,81.6516 206.152,78.8182 204.5,75C 200.322,73.5593 196.655,71.3926 193.5,68.5C 192.11,65.0697 192.276,61.7363 194,58.5C 197.982,54.684 201.815,50.684 205.5,46.5C 205.842,45.6618 206.508,45.3284 207.5,45.5C 209.401,45.5668 211.234,45.2335 213,44.5C 215.562,46.5152 218.395,48.0152 221.5,49C 218.526,53.3051 218.86,57.1384 222.5,60.5C 235.7,54.889 248.7,55.2224 261.5,61.5 Z"/></g>
<g><path style="opacity:1" fill="#2b2825" d="M 205.5,46.5 C 201.815,50.684 197.982,54.684 194,58.5C 192.276,61.7363 192.11,65.0697 193.5,68.5C 192.402,69.6009 192.235,70.9343 193,72.5C 195.07,77.943 197.07,83.2763 199,88.5C 194.268,82.5585 188.768,77.3918 182.5,73C 179.391,72.3043 176.558,71.1377 174,69.5C 173.322,73.2211 173.489,76.8878 174.5,80.5C 165.499,77.7895 156.499,77.9561 147.5,81C 143.328,84.4989 138.662,87.1656 133.5,89C 134.094,89.4643 134.761,89.631 135.5,89.5C 142.57,89.7199 148.904,92.0532 154.5,96.5C 157.884,100.06 160.717,104.06 163,108.5C 165.406,112.605 164.906,116.272 161.5,119.5C 157.126,115.657 152.793,111.824 148.5,108C 136.896,105.178 125.229,103.012 113.5,101.5C 112.233,98.7608 112.399,96.0942 114,93.5C 118.71,86.9681 123.876,80.9681 129.5,75.5C 139.015,67.9982 149.848,63.3315 162,61.5C 164.857,62.0307 167.523,63.0307 170,64.5C 178.103,63.1958 185.603,60.3625 192.5,56C 196.538,52.3258 200.871,49.1591 205.5,46.5 Z"/></g>
<g><path style="opacity:1" fill="#221e1b" d="M 258.5,64.5 C 247.449,64.1754 240.783,69.3421 238.5,80C 238.833,80.5 239.167,81 239.5,81.5C 242.698,78.4028 246.364,76.0695 250.5,74.5C 253.329,74.8239 253.996,76.1572 252.5,78.5C 244.124,87.3741 234.957,95.3741 225,102.5C 221.853,110.068 218.853,117.734 216,125.5C 212.167,128.667 208.333,131.833 204.5,135C 202.35,136.411 200.016,137.245 197.5,137.5C 198.877,133.222 199.711,128.888 200,124.5C 198.951,123.483 197.784,123.316 196.5,124C 193.922,126.207 191.089,128.04 188,129.5C 184.124,129.29 181.79,127.29 181,123.5C 180.042,118.877 179.375,114.21 179,109.5C 176.955,105.398 175.455,101.065 174.5,96.5C 171.36,94.527 168.36,92.3603 165.5,90C 162.181,89.2636 159.181,89.9303 156.5,92C 160.878,96.5951 164.378,101.762 167,107.5C 169,112.167 171,116.833 173,121.5C 174.277,125.097 174.61,128.764 174,132.5C 172.951,133.517 171.784,133.684 170.5,133C 165.814,129.8 160.814,127.3 155.5,125.5C 147.688,110.919 135.354,104.086 118.5,105C 114.036,104.829 111.37,102.663 110.5,98.5C 110.884,94.3961 112.384,90.7294 115,87.5C 119.707,83.2882 124.54,79.2882 129.5,75.5C 123.876,80.9681 118.71,86.9681 114,93.5C 112.399,96.0942 112.233,98.7608 113.5,101.5C 125.229,103.012 136.896,105.178 148.5,108C 152.793,111.824 157.126,115.657 161.5,119.5C 164.906,116.272 165.406,112.605 163,108.5C 160.717,104.06 157.884,100.06 154.5,96.5C 148.904,92.0532 142.57,89.7199 135.5,89.5C 144.31,86.8091 153.31,85.6424 162.5,86C 165.291,87.7886 168.291,89.1219 171.5,90C 172.833,91.3333 174.167,92.6667 175.5,94C 179.011,94.6701 182.344,95.8368 185.5,97.5C 185.833,97.1667 186.167,96.8333 186.5,96.5C 185.811,94.556 185.311,92.556 185,90.5C 181.33,87.2661 177.83,83.9328 174.5,80.5C 173.489,76.8878 173.322,73.2211 174,69.5C 176.558,71.1377 179.391,72.3043 182.5,73C 188.768,77.3918 194.268,82.5585 199,88.5C 197.07,83.2763 195.07,77.943 193,72.5C 192.235,70.9343 192.402,69.6009 193.5,68.5C 196.655,71.3926 200.322,73.5593 204.5,75C 206.152,78.8182 208.819,81.6516 212.5,83.5C 215.456,92.7012 219.956,93.7012 226,86.5C 227.049,87.5171 228.216,87.6838 229.5,87C 231.638,82.6438 234.138,78.4771 237,74.5C 239.806,71.6937 242.64,68.8604 245.5,66C 249.818,63.7349 254.151,63.2349 258.5,64.5 Z"/></g>
<g><path style="opacity:1" fill="#3f3c39" d="M 174.5,80.5 C 177.83,83.9328 181.33,87.2661 185,90.5C 185.311,92.556 185.811,94.556 186.5,96.5C 186.167,96.8333 185.833,97.1667 185.5,97.5C 182.344,95.8368 179.011,94.6701 175.5,94C 174.167,92.6667 172.833,91.3333 171.5,90C 168.291,89.1219 165.291,87.7886 162.5,86C 153.31,85.6424 144.31,86.8091 135.5,89.5C 134.761,89.631 134.094,89.4643 133.5,89C 138.662,87.1656 143.328,84.4989 147.5,81C 156.499,77.9561 165.499,77.7895 174.5,80.5 Z"/></g>
<g><path style="opacity:0.984" fill="#1b1815" d="M 258.5,64.5 C 259.552,64.3505 260.552,64.5172 261.5,65C 267.242,69.7497 273.242,74.0831 279.5,78C 290.126,81.6746 294.626,78.1746 293,67.5C 290.257,69.7879 287.423,71.9545 284.5,74C 282.934,74.765 281.601,74.5983 280.5,73.5C 284.202,71.9764 287.536,69.8097 290.5,67C 294.534,66.024 296.534,67.6906 296.5,72C 295.678,77.9824 292.678,82.4824 287.5,85.5C 294.04,91.1732 300.207,97.1732 306,103.5C 308.557,107.945 310.557,112.611 312,117.5C 316.991,122.61 319.158,128.777 318.5,136C 318.365,139.534 318.031,143.034 317.5,146.5C 314.727,147.936 313.227,146.936 313,143.5C 312.5,136.508 312.334,129.508 312.5,122.5C 308.976,122.071 305.976,120.571 303.5,118C 301.256,117.094 298.923,116.594 296.5,116.5C 288.801,117.45 281.134,118.617 273.5,120C 268.023,122.742 262.356,124.908 256.5,126.5C 257.052,124.669 257.052,123.003 256.5,121.5C 248.638,125.512 240.471,128.846 232,131.5C 231.228,131.355 230.561,131.022 230,130.5C 229.333,128.5 228.667,126.5 228,124.5C 228.032,129.889 227.865,135.222 227.5,140.5C 222.969,142.719 218.302,143.052 213.5,141.5C 218.89,131.05 224.057,120.384 229,109.5C 229.667,108.167 229.667,106.833 229,105.5C 227.926,106.618 226.76,107.618 225.5,108.5C 222.61,114.763 219.777,121.097 217,127.5C 211.298,134.265 204.131,138.265 195.5,139.5C 196.159,136.545 196.492,133.545 196.5,130.5C 193.777,131.352 191.11,132.519 188.5,134C 182.103,135.277 177.936,132.777 176,126.5C 175.501,130.152 175.335,133.818 175.5,137.5C 172.646,137.076 169.979,136.076 167.5,134.5C 163.223,131.855 159.223,128.855 155.5,125.5C 160.814,127.3 165.814,129.8 170.5,133C 171.784,133.684 172.951,133.517 174,132.5C 174.61,128.764 174.277,125.097 173,121.5C 171,116.833 169,112.167 167,107.5C 164.378,101.762 160.878,96.5951 156.5,92C 159.181,89.9303 162.181,89.2636 165.5,90C 168.36,92.3603 171.36,94.527 174.5,96.5C 175.455,101.065 176.955,105.398 179,109.5C 179.375,114.21 180.042,118.877 181,123.5C 181.79,127.29 184.124,129.29 188,129.5C 191.089,128.04 193.922,126.207 196.5,124C 197.784,123.316 198.951,123.483 200,124.5C 199.711,128.888 198.877,133.222 197.5,137.5C 200.016,137.245 202.35,136.411 204.5,135C 208.333,131.833 212.167,128.667 216,125.5C 218.853,117.734 221.853,110.068 225,102.5C 234.957,95.3741 244.124,87.3741 252.5,78.5C 253.996,76.1572 253.329,74.8239 250.5,74.5C 246.364,76.0695 242.698,78.4028 239.5,81.5C 239.167,81 238.833,80.5 238.5,80C 240.783,69.3421 247.449,64.1754 258.5,64.5 Z"/></g>
<g><path style="opacity:1" fill="#322f2c" d="M 260.5,89.5 C 255.194,91.818 249.86,94.1513 244.5,96.5C 244.579,97.9305 244.246,99.2638 243.5,100.5C 244.729,101.281 246.062,101.781 247.5,102C 261.199,102.276 274.866,101.609 288.5,100C 290.038,96.0609 289.372,92.5609 286.5,89.5C 294.165,91.829 296.831,96.829 294.5,104.5C 280.601,106.753 266.601,108.087 252.5,108.5C 246.053,109.362 239.719,110.696 233.5,112.5C 234.001,107.124 236.001,102.458 239.5,98.5C 245.675,93.5794 252.675,90.5794 260.5,89.5 Z"/></g>
<g><path style="opacity:1" fill="#413e3c" d="M 286.5,89.5 C 289.372,92.5609 290.038,96.0609 288.5,100C 274.866,101.609 261.199,102.276 247.5,102C 246.062,101.781 244.729,101.281 243.5,100.5C 244.246,99.2638 244.579,97.9305 244.5,96.5C 249.86,94.1513 255.194,91.818 260.5,89.5C 269.042,86.8535 277.709,86.8535 286.5,89.5 Z"/></g>
<g><path style="opacity:1" fill="#171310" d="M 110.5,98.5 C 111.37,102.663 114.036,104.829 118.5,105C 135.354,104.086 147.688,110.919 155.5,125.5C 159.223,128.855 163.223,131.855 167.5,134.5C 169.979,136.076 172.646,137.076 175.5,137.5C 175.335,133.818 175.501,130.152 176,126.5C 177.936,132.777 182.103,135.277 188.5,134C 191.11,132.519 193.777,131.352 196.5,130.5C 196.492,133.545 196.159,136.545 195.5,139.5C 204.131,138.265 211.298,134.265 217,127.5C 219.777,121.097 222.61,114.763 225.5,108.5C 226.76,107.618 227.926,106.618 229,105.5C 229.667,106.833 229.667,108.167 229,109.5C 224.057,120.384 218.89,131.05 213.5,141.5C 218.302,143.052 222.969,142.719 227.5,140.5C 227.865,135.222 228.032,129.889 228,124.5C 228.667,126.5 229.333,128.5 230,130.5C 230.561,131.022 231.228,131.355 232,131.5C 240.471,128.846 248.638,125.512 256.5,121.5C 257.052,123.003 257.052,124.669 256.5,126.5C 262.356,124.908 268.023,122.742 273.5,120C 281.134,118.617 288.801,117.45 296.5,116.5C 298.923,116.594 301.256,117.094 303.5,118C 305.976,120.571 308.976,122.071 312.5,122.5C 312.334,129.508 312.5,136.508 313,143.5C 313.227,146.936 314.727,147.936 317.5,146.5C 315.989,152.211 314.322,157.878 312.5,163.5C 314.643,172.061 315.477,180.728 315,189.5C 312.05,200.417 309.55,211.417 307.5,222.5C 306.833,222.5 306.5,222.833 306.5,223.5C 305.974,225.23 304.974,226.564 303.5,227.5C 301.317,219.233 299.317,210.9 297.5,202.5C 295.4,189.448 292.9,176.448 290,163.5C 288.974,160.761 287.474,158.428 285.5,156.5C 285.141,154.629 284.141,153.129 282.5,152C 275.447,146.973 267.78,143.306 259.5,141C 247.038,142.236 234.704,143.736 222.5,145.5C 209.13,145.778 195.797,145.445 182.5,144.5C 175.127,143.029 167.627,141.696 160,140.5C 153.899,141.64 148.399,143.973 143.5,147.5C 141.205,148.136 139.539,149.469 138.5,151.5C 136.629,151.859 135.129,152.859 134,154.5C 131.947,157.857 130.447,161.524 129.5,165.5C 127.868,168.558 126.701,171.891 126,175.5C 123.158,192.532 120.158,209.532 117,226.5C 116.617,227.056 116.117,227.389 115.5,227.5C 114.488,226.128 113.488,224.795 112.5,223.5C 112.5,222.833 112.167,222.5 111.5,222.5C 111.216,219.223 111.549,216.057 112.5,213C 111.291,209.963 110.457,206.796 110,203.5C 108.344,192.228 107.344,180.895 107,169.5C 104.903,165.779 103.736,161.779 103.5,157.5C 104.181,152.264 105.181,147.097 106.5,142C 104.487,134.945 103.654,127.778 104,120.5C 105.048,115.673 107.048,111.34 110,107.5C 110.087,104.293 110.254,101.293 110.5,98.5 Z"/></g>
<g><path style="opacity:1" fill="#845839" d="M 182.5,144.5 C 172.852,143.508 163.186,143.342 153.5,144C 150.252,145.46 146.919,146.626 143.5,147.5C 148.399,143.973 153.899,141.64 160,140.5C 167.627,141.696 175.127,143.029 182.5,144.5 Z"/></g>
<g><path style="opacity:1" fill="#e5b799" d="M 185.5,147.5 C 182.334,147.234 179.167,146.901 176,146.5C 173.648,146.305 171.648,146.972 170,148.5C 164.352,157.153 163.019,166.487 166,176.5C 169.085,182.636 173.919,186.802 180.5,189C 193.717,194.705 207.384,196.371 221.5,194C 227.167,192.333 232.833,190.667 238.5,189C 252.242,183.352 257.409,173.185 254,158.5C 253.142,153.723 250.642,150.389 246.5,148.5C 253.662,150.046 260.995,151.046 268.5,151.5C 268.319,154.397 268.652,157.23 269.5,160C 268.313,169.121 267.479,178.288 267,187.5C 262.16,188.912 257.326,190.245 252.5,191.5C 246.981,193.053 241.314,194.553 235.5,196C 233.937,196.759 232.937,197.926 232.5,199.5C 231.662,199.842 231.328,200.508 231.5,201.5C 230.596,202.209 230.263,203.209 230.5,204.5C 223.623,206.302 216.623,207.302 209.5,207.5C 202.377,207.302 195.377,206.302 188.5,204.5C 188.598,202.447 187.931,200.78 186.5,199.5C 186.423,198.25 185.756,197.417 184.5,197C 178.998,194.775 173.331,193.275 167.5,192.5C 162.309,190.896 157.143,189.229 152,187.5C 151.521,178.288 150.687,169.121 149.5,160C 150.149,156.125 150.982,152.291 152,148.5C 154.596,146.98 157.429,146.147 160.5,146C 164,145.833 167.5,145.667 171,145.5C 176.102,145.293 180.935,145.96 185.5,147.5 Z"/></g>
<g><path style="opacity:1" fill="#986b4b" d="M 285.5,156.5 C 284.609,155.89 283.609,155.557 282.5,155.5C 280.156,155.325 278.489,154.158 277.5,152C 270.068,150.485 262.734,148.652 255.5,146.5C 244.525,145.568 233.525,145.234 222.5,145.5C 234.704,143.736 247.038,142.236 259.5,141C 267.78,143.306 275.447,146.973 282.5,152C 284.141,153.129 285.141,154.629 285.5,156.5 Z"/></g>
<g><path style="opacity:1" fill="#d3a484" d="M 182.5,144.5 C 195.797,145.445 209.13,145.778 222.5,145.5C 233.525,145.234 244.525,145.568 255.5,146.5C 262.734,148.652 270.068,150.485 277.5,152C 278.489,154.158 280.156,155.325 282.5,155.5C 281.555,169.177 280.388,182.843 279,196.5C 278.667,193.833 278.333,191.167 278,188.5C 277.667,190.833 277.333,193.167 277,195.5C 276.329,194.748 275.496,194.414 274.5,194.5C 267.501,191.826 260.168,190.826 252.5,191.5C 257.326,190.245 262.16,188.912 267,187.5C 267.479,178.288 268.313,169.121 269.5,160C 268.652,157.23 268.319,154.397 268.5,151.5C 260.995,151.046 253.662,150.046 246.5,148.5C 226.188,146.493 205.855,146.159 185.5,147.5C 180.935,145.96 176.102,145.293 171,145.5C 167.5,145.667 164,145.833 160.5,146C 157.429,146.147 154.596,146.98 152,148.5C 150.982,152.291 150.149,156.125 149.5,160C 150.687,169.121 151.521,178.288 152,187.5C 157.143,189.229 162.309,190.896 167.5,192.5C 161.189,191.573 154.856,191.406 148.5,192C 146.138,193.511 143.805,195.011 141.5,196.5C 139.506,185.672 137.839,174.506 136.5,163C 136.432,159.001 137.099,155.168 138.5,151.5C 139.539,149.469 141.205,148.136 143.5,147.5C 146.919,146.626 150.252,145.46 153.5,144C 163.186,143.342 172.852,143.508 182.5,144.5 Z"/></g>
<g><path style="opacity:1" fill="#f1c5a9" d="M 185.5,147.5 C 205.855,146.159 226.188,146.493 246.5,148.5C 250.642,150.389 253.142,153.723 254,158.5C 257.409,173.185 252.242,183.352 238.5,189C 232.833,190.667 227.167,192.333 221.5,194C 207.384,196.371 193.717,194.705 180.5,189C 173.919,186.802 169.085,182.636 166,176.5C 163.019,166.487 164.352,157.153 170,148.5C 171.648,146.972 173.648,146.305 176,146.5C 179.167,146.901 182.334,147.234 185.5,147.5 Z"/></g>
<g><path style="opacity:1" fill="#f9cfb4" d="M 191.5,147.5 C 199.993,148.812 208.493,148.812 217,147.5C 230.355,146.86 238.521,153.027 241.5,166C 240.837,170.676 238.504,174.342 234.5,177C 227.068,182.718 218.735,186.218 209.5,187.5C 200.265,186.218 191.932,182.718 184.5,177C 176.589,171.367 175.422,164.533 181,156.5C 184.103,152.886 187.603,149.886 191.5,147.5 Z"/></g>
<g><path style="opacity:1" fill="#c29272" d="M 138.5,151.5 C 137.099,155.168 136.432,159.001 136.5,163C 137.839,174.506 139.506,185.672 141.5,196.5C 141.315,198.196 140.481,199.529 139,200.5C 138.503,202.81 138.337,205.143 138.5,207.5C 136.228,208.319 133.894,208.985 131.5,209.5C 130.252,208.666 129.585,207.333 129.5,205.5C 126.864,192.151 126.864,178.817 129.5,165.5C 130.447,161.524 131.947,157.857 134,154.5C 135.129,152.859 136.629,151.859 138.5,151.5 Z"/></g>
<g><path style="opacity:1" fill="#bc8d6d" d="M 282.5,155.5 C 283.609,155.557 284.609,155.89 285.5,156.5C 287.474,158.428 288.974,160.761 290,163.5C 292.9,176.448 295.4,189.448 297.5,202.5C 297.5,205.833 297.5,209.167 297.5,212.5C 291.296,211.45 285.296,209.783 279.5,207.5C 280.511,205.598 280.678,203.598 280,201.5C 278.334,199.004 276.5,196.671 274.5,194.5C 275.496,194.414 276.329,194.748 277,195.5C 277.333,193.167 277.667,190.833 278,188.5C 278.333,191.167 278.667,193.833 279,196.5C 280.388,182.843 281.555,169.177 282.5,155.5 Z"/></g>
<g><path style="opacity:1" fill="#483b32" d="M 167.5,192.5 C 173.331,193.275 178.998,194.775 184.5,197C 185.756,197.417 186.423,198.25 186.5,199.5C 186.578,203.139 185.078,205.806 182,207.5C 171.195,203.45 160.028,201.95 148.5,203C 146.273,203.941 144.273,205.108 142.5,206.5C 141.167,206.833 139.833,207.167 138.5,207.5C 138.337,205.143 138.503,202.81 139,200.5C 140.481,199.529 141.315,198.196 141.5,196.5C 143.805,195.011 146.138,193.511 148.5,192C 154.856,191.406 161.189,191.573 167.5,192.5 Z"/></g>
<g><path style="opacity:1" fill="#443930" d="M 252.5,191.5 C 260.168,190.826 267.501,191.826 274.5,194.5C 276.5,196.671 278.334,199.004 280,201.5C 280.678,203.598 280.511,205.598 279.5,207.5C 278.391,207.443 277.391,207.11 276.5,206.5C 270.474,201.632 263.474,200.132 255.5,202C 249.145,203.771 242.811,205.604 236.5,207.5C 233.845,205.556 232.511,202.89 232.5,199.5C 232.937,197.926 233.937,196.759 235.5,196C 241.314,194.553 246.981,193.053 252.5,191.5 Z"/></g>
<g><path style="opacity:1" fill="#cb9e80" d="M 186.5,199.5 C 187.931,200.78 188.598,202.447 188.5,204.5C 195.377,206.302 202.377,207.302 209.5,207.5C 216.623,207.302 223.623,206.302 230.5,204.5C 230.263,203.209 230.596,202.209 231.5,201.5C 231.667,205.179 233.334,207.846 236.5,209.5C 232.221,211.784 228.221,214.451 224.5,217.5C 214.326,213.521 204.16,213.521 194,217.5C 190.605,214.883 187.105,212.383 183.5,210C 170.176,205.411 156.509,204.245 142.5,206.5C 144.273,205.108 146.273,203.941 148.5,203C 160.028,201.95 171.195,203.45 182,207.5C 185.078,205.806 186.578,203.139 186.5,199.5 Z"/></g>
<g><path style="opacity:1" fill="#a6836d" d="M 232.5,199.5 C 232.511,202.89 233.845,205.556 236.5,207.5C 242.811,205.604 249.145,203.771 255.5,202C 263.474,200.132 270.474,201.632 276.5,206.5C 262.837,204.31 249.504,205.31 236.5,209.5C 233.334,207.846 231.667,205.179 231.5,201.5C 231.328,200.508 231.662,199.842 232.5,199.5 Z"/></g>
<g><path style="opacity:1" fill="#a37454" d="M 129.5,165.5 C 126.864,178.817 126.864,192.151 129.5,205.5C 129.585,207.333 130.252,208.666 131.5,209.5C 128.287,210.487 124.954,211.487 121.5,212.5C 118.693,216.269 119.193,219.602 123,222.5C 123.599,227.02 123.432,231.52 122.5,236C 123.316,251.615 130.65,262.782 144.5,269.5C 134.828,269.666 125.161,269.5 115.5,269C 114.299,268.097 113.465,266.931 113,265.5C 110.814,256.663 108.314,247.996 105.5,239.5C 104.5,239.5 103.5,239.5 102.5,239.5C 103.334,248.507 104.334,257.507 105.5,266.5C 101.517,254.591 99.6836,242.257 100,229.5C 100.374,227.509 101.207,225.842 102.5,224.5C 102.281,225.675 102.614,226.675 103.5,227.5C 105.753,228.253 107.587,229.586 109,231.5C 109.813,234.821 111.313,237.821 113.5,240.5C 114.192,239.975 114.692,239.308 115,238.5C 115.499,234.848 115.665,231.182 115.5,227.5C 116.117,227.389 116.617,227.056 117,226.5C 120.158,209.532 123.158,192.532 126,175.5C 126.701,171.891 127.868,168.558 129.5,165.5 Z"/></g>
<g><path style="opacity:1" fill="#4b4a49" d="M 236.5,209.5 C 249.504,205.31 262.837,204.31 276.5,206.5C 277.391,207.11 278.391,207.443 279.5,207.5C 285.296,209.783 291.296,211.45 297.5,212.5C 298.665,213.496 299.332,214.829 299.5,216.5C 298.57,218.606 297.404,220.606 296,222.5C 298.512,235.961 295.845,248.294 288,259.5C 284.037,263.213 279.871,266.546 275.5,269.5C 273.901,269.232 272.568,269.566 271.5,270.5C 264.833,270.5 258.167,270.5 251.5,270.5C 247.122,268.814 242.788,266.814 238.5,264.5C 226.475,252.785 221.308,238.451 223,221.5C 221.352,220.283 219.519,219.45 217.5,219C 210.012,217.745 202.845,218.579 196,221.5C 196.838,235.47 193.338,248.137 185.5,259.5C 180.614,264.439 174.948,268.105 168.5,270.5C 161.833,270.5 155.167,270.5 148.5,270.5C 147.432,269.566 146.099,269.232 144.5,269.5C 130.65,262.782 123.316,251.615 122.5,236C 123.432,231.52 123.599,227.02 123,222.5C 119.193,219.602 118.693,216.269 121.5,212.5C 124.954,211.487 128.287,210.487 131.5,209.5C 133.894,208.985 136.228,208.319 138.5,207.5C 139.833,207.167 141.167,206.833 142.5,206.5C 156.509,204.245 170.176,205.411 183.5,210C 187.105,212.383 190.605,214.883 194,217.5C 204.16,213.521 214.326,213.521 224.5,217.5C 228.221,214.451 232.221,211.784 236.5,209.5 Z"/></g>
<g><path style="opacity:1" fill="#ab846c" d="M 276.5,210.5 C 284.233,213.072 289.066,218.405 291,226.5C 291.747,233.882 291.414,241.215 290,248.5C 289.623,249.942 288.79,250.942 287.5,251.5C 288.431,244.366 286.264,238.366 281,233.5C 280.296,235.727 279.129,236.06 277.5,234.5C 276.833,234.5 276.5,234.167 276.5,233.5C 277.573,232.749 277.74,231.749 277,230.5C 271.571,223.667 264.404,220.834 255.5,222C 245.459,223.773 237.626,228.94 232,237.5C 231.26,238.749 231.427,239.749 232.5,240.5C 232.167,241.5 231.5,242.167 230.5,242.5C 228.933,241.319 228.099,239.653 228,237.5C 227.188,233.311 227.355,229.311 228.5,225.5C 233.67,218.001 241.003,214.668 250.5,215.5C 261.568,216.304 271.901,219.304 281.5,224.5C 281.665,220.818 281.499,217.152 281,213.5C 279.122,212.947 277.622,211.947 276.5,210.5 Z"/></g>
<g><path style="opacity:1" fill="#a78169" d="M 189.5,221.5 C 192.16,229.255 191.827,236.921 188.5,244.5C 188.267,242.938 187.6,241.605 186.5,240.5C 187.097,240.265 187.43,239.765 187.5,239C 186.683,237.51 185.85,236.01 185,234.5C 177.813,226.926 169.146,222.593 159,221.5C 156.453,221.762 153.953,222.262 151.5,223C 148.424,225.62 145.258,228.12 142,230.5C 141.517,231.448 141.351,232.448 141.5,233.5C 141.443,234.609 141.11,235.609 140.5,236.5C 139.127,236.343 137.793,236.51 136.5,237C 131.952,244.797 129.786,244.297 130,235.5C 134.279,231.896 137.779,227.729 140.5,223C 154.461,215.288 169.128,213.621 184.5,218C 185.667,219.833 187.167,221.333 189,222.5C 189.399,222.272 189.565,221.938 189.5,221.5 Z"/></g>
<g><path style="opacity:1" fill="#c49e86" d="M 189.5,221.5 C 189.565,221.938 189.399,222.272 189,222.5C 187.167,221.333 185.667,219.833 184.5,218C 169.128,213.621 154.461,215.288 140.5,223C 137.779,227.729 134.279,231.896 130,235.5C 129.786,244.297 131.952,244.797 136.5,237C 137.793,236.51 139.127,236.343 140.5,236.5C 142.505,238.334 144.672,240.001 147,241.5C 147.793,247.739 146.96,253.739 144.5,259.5C 142.354,260.057 140.354,260.39 138.5,260.5C 128.702,251.678 125.202,240.678 128,227.5C 129.628,216.872 135.795,211.039 146.5,210C 159.366,208.141 171.7,209.807 183.5,215C 185.847,216.872 187.847,219.039 189.5,221.5 Z"/></g>
<g><path style="opacity:1" fill="#c8a086" d="M 276.5,210.5 C 277.622,211.947 279.122,212.947 281,213.5C 281.499,217.152 281.665,220.818 281.5,224.5C 271.901,219.304 261.568,216.304 250.5,215.5C 241.003,214.668 233.67,218.001 228.5,225.5C 228.247,223.173 228.914,221.173 230.5,219.5C 233.481,216.023 237.148,213.523 241.5,212C 253.049,209.263 264.716,208.763 276.5,210.5 Z"/></g>
<g><path style="opacity:1" fill="#282624" d="M 186.5,240.5 C 184.833,238.167 182.833,236.167 180.5,234.5C 179.426,233.115 178.093,231.949 176.5,231C 175.833,230.333 175.167,230.333 174.5,231C 175.679,233.796 175.679,236.629 174.5,239.5C 168.5,239.5 162.5,239.5 156.5,239.5C 156.5,236.833 156.5,234.167 156.5,231.5C 160.915,233.542 163.082,232.209 163,227.5C 161.89,225.963 160.39,225.297 158.5,225.5C 156.549,225.227 155.049,225.893 154,227.5C 153.617,226.944 153.117,226.611 152.5,226.5C 148.354,228.073 144.687,230.407 141.5,233.5C 141.351,232.448 141.517,231.448 142,230.5C 145.258,228.12 148.424,225.62 151.5,223C 153.953,222.262 156.453,221.762 159,221.5C 169.146,222.593 177.813,226.926 185,234.5C 185.85,236.01 186.683,237.51 187.5,239C 187.43,239.765 187.097,240.265 186.5,240.5 Z"/></g>
<g><path style="opacity:1" fill="#be9274" d="M 238.5,264.5 C 237.957,264.56 237.624,264.893 237.5,265.5C 241.584,268.623 240.917,269.79 235.5,269C 225.452,260.708 220.952,249.874 222,236.5C 220.52,233.337 218.02,231.504 214.5,231C 210.833,230.333 207.167,230.333 203.5,231C 202.069,231.465 200.903,232.299 200,233.5C 198.79,239.756 197.956,246.089 197.5,252.5C 194.506,256.481 192.006,260.814 190,265.5C 187.293,269.035 183.793,270.202 179.5,269C 182.787,266.767 185.121,263.767 186.5,260C 186.272,259.601 185.938,259.435 185.5,259.5C 193.338,248.137 196.838,235.47 196,221.5C 202.845,218.579 210.012,217.745 217.5,219C 219.519,219.45 221.352,220.283 223,221.5C 221.308,238.451 226.475,252.785 238.5,264.5 Z"/></g>
<g><path style="opacity:1" fill="#2c2928" d="M 276.5,233.5 C 274.588,230.539 271.921,228.539 268.5,227.5C 267.469,226.751 266.302,226.085 265,225.5C 262.364,225.545 259.53,225.712 256.5,226C 261.776,228.051 263.776,231.884 262.5,237.5C 260.268,243.553 255.935,246.053 249.5,245C 244.522,241.554 242.855,237.054 244.5,231.5C 249.232,233.6 250.899,232.267 249.5,227.5C 247.604,228.275 245.937,229.275 244.5,230.5C 241.63,231.433 239.296,233.1 237.5,235.5C 235.5,236.833 233.833,238.5 232.5,240.5C 231.427,239.749 231.26,238.749 232,237.5C 237.626,228.94 245.459,223.773 255.5,222C 264.404,220.834 271.571,223.667 277,230.5C 277.74,231.749 277.573,232.749 276.5,233.5 Z"/></g>
<g><path style="opacity:1" fill="#cd9e7e" d="M 317.5,225.5 C 317.5,226.5 317.5,227.5 317.5,228.5C 314.737,228.744 312.571,230.077 311,232.5C 309.167,235.5 307.333,238.5 305.5,241.5C 304.808,240.975 304.308,240.308 304,239.5C 303.501,235.514 303.334,231.514 303.5,227.5C 304.974,226.564 305.974,225.23 306.5,223.5C 307.167,223.5 307.5,223.167 307.5,222.5C 312.07,219.468 315.403,220.468 317.5,225.5 Z"/></g>
<g><path style="opacity:1" fill="#d6d5d4" d="M 158.5,225.5 C 160.39,225.297 161.89,225.963 163,227.5C 163.082,232.209 160.915,233.542 156.5,231.5C 156.253,229.142 156.919,227.142 158.5,225.5 Z"/></g>
<g><path style="opacity:1" fill="#d1d1d1" d="M 244.5,231.5 C 244.5,231.167 244.5,230.833 244.5,230.5C 245.937,229.275 247.604,228.275 249.5,227.5C 250.899,232.267 249.232,233.6 244.5,231.5 Z"/></g>
<g><path style="opacity:1" fill="#d2d0d0" d="M 268.5,227.5 C 271.921,228.539 274.588,230.539 276.5,233.5C 276.5,234.167 276.833,234.5 277.5,234.5C 277.378,237.292 276.044,239.292 273.5,240.5C 271.539,242.312 269.206,243.312 266.5,243.5C 267.11,242.609 267.443,241.609 267.5,240.5C 268.307,236.037 268.64,231.704 268.5,227.5 Z"/></g>
<g><path style="opacity:1" fill="#d3a484" d="M 111.5,222.5 C 112.167,222.5 112.5,222.833 112.5,223.5C 113.488,224.795 114.488,226.128 115.5,227.5C 115.665,231.182 115.499,234.848 115,238.5C 114.692,239.308 114.192,239.975 113.5,240.5C 111.313,237.821 109.813,234.821 109,231.5C 107.587,229.586 105.753,228.253 103.5,227.5C 102.614,226.675 102.281,225.675 102.5,224.5C 104.549,220.158 107.549,219.491 111.5,222.5 Z"/></g>
<g><path style="opacity:1" fill="#5d4936" d="M 268.5,227.5 C 268.64,231.704 268.307,236.037 267.5,240.5C 266.691,238.708 266.191,236.708 266,234.5C 265.333,233.833 264.667,233.167 264,232.5C 263.802,234.382 263.302,236.048 262.5,237.5C 263.776,231.884 261.776,228.051 256.5,226C 259.53,225.712 262.364,225.545 265,225.5C 266.302,226.085 267.469,226.751 268.5,227.5 Z"/></g>
<g><path style="opacity:1" fill="#463f39" d="M 158.5,225.5 C 156.919,227.142 156.253,229.142 156.5,231.5C 156.5,234.167 156.5,236.833 156.5,239.5C 162.5,239.5 168.5,239.5 174.5,239.5C 169.609,246.592 163.942,247.259 157.5,241.5C 156.12,243.665 154.453,243.999 152.5,242.5C 149.884,237.277 149.884,231.943 152.5,226.5C 153.117,226.611 153.617,226.944 154,227.5C 155.049,225.893 156.549,225.227 158.5,225.5 Z"/></g>
<g><path style="opacity:1" fill="#856b55" d="M 180.5,234.5 C 180.592,238.059 179.759,241.392 178,244.5C 169.864,247.151 161.697,247.151 153.5,244.5C 152.702,244.043 152.369,243.376 152.5,242.5C 154.453,243.999 156.12,243.665 157.5,241.5C 163.942,247.259 169.609,246.592 174.5,239.5C 175.679,236.629 175.679,233.796 174.5,231C 175.167,230.333 175.833,230.333 176.5,231C 178.093,231.949 179.426,233.115 180.5,234.5 Z"/></g>
<g><path style="opacity:1" fill="#b98a69" d="M 318.5,240.5 C 318.375,246.444 317.375,252.11 315.5,257.5C 315.37,253.132 315.703,248.798 316.5,244.5C 316.462,241.813 315.462,241.146 313.5,242.5C 310.148,249.058 307.981,256.058 307,263.5C 306.186,266.177 304.686,268.177 302.5,269.5C 302.604,258.747 304.771,248.414 309,238.5C 311.01,234.996 314.01,232.996 318,232.5C 318.497,235.146 318.664,237.813 318.5,240.5 Z"/></g>
<g><path style="opacity:1" fill="#d1ac96" d="M 287.5,251.5 C 285.876,256.089 282.876,259.423 278.5,261.5C 275.954,254.782 274.287,247.782 273.5,240.5C 276.044,239.292 277.378,237.292 277.5,234.5C 279.129,236.06 280.296,235.727 281,233.5C 286.264,238.366 288.431,244.366 287.5,251.5 Z"/></g>
<g><path style="opacity:1" fill="#d1a485" d="M 144.5,269.5 C 146.099,269.232 147.432,269.566 148.5,270.5C 134.088,270.816 119.755,270.482 105.5,269.5C 105.5,268.5 105.5,267.5 105.5,266.5C 104.334,257.507 103.334,248.507 102.5,239.5C 103.5,239.5 104.5,239.5 105.5,239.5C 108.314,247.996 110.814,256.663 113,265.5C 113.465,266.931 114.299,268.097 115.5,269C 125.161,269.5 134.828,269.666 144.5,269.5 Z"/></g>
<g><path style="opacity:1" fill="#826954" d="M 244.5,230.5 C 244.5,230.833 244.5,231.167 244.5,231.5C 242.855,237.054 244.522,241.554 249.5,245C 255.935,246.053 260.268,243.553 262.5,237.5C 263.302,236.048 263.802,234.382 264,232.5C 264.667,233.167 265.333,233.833 266,234.5C 266.191,236.708 266.691,238.708 267.5,240.5C 267.443,241.609 267.11,242.609 266.5,243.5C 265.158,244.793 263.491,245.626 261.5,246C 254.766,246.829 248.099,246.496 241.5,245C 239.85,241.861 238.517,238.694 237.5,235.5C 239.296,233.1 241.63,231.433 244.5,230.5 Z"/></g>
<g><path style="opacity:1" fill="#9d6e4e" d="M 297.5,202.5 C 299.317,210.9 301.317,219.233 303.5,227.5C 303.334,231.514 303.501,235.514 304,239.5C 304.308,240.308 304.808,240.975 305.5,241.5C 307.333,238.5 309.167,235.5 311,232.5C 312.571,230.077 314.737,228.744 317.5,228.5C 317.5,227.5 317.5,226.5 317.5,225.5C 318.913,228.382 319.579,231.549 319.5,235C 319.494,237.033 319.161,238.866 318.5,240.5C 318.664,237.813 318.497,235.146 318,232.5C 314.01,232.996 311.01,234.996 309,238.5C 304.771,248.414 302.604,258.747 302.5,269.5C 293.5,269.5 284.5,269.5 275.5,269.5C 279.871,266.546 284.037,263.213 288,259.5C 295.845,248.294 298.512,235.961 296,222.5C 297.404,220.606 298.57,218.606 299.5,216.5C 299.332,214.829 298.665,213.496 297.5,212.5C 297.5,209.167 297.5,205.833 297.5,202.5 Z"/></g>
<g><path style="opacity:1" fill="#e9cab7" d="M 152.5,226.5 C 149.884,231.943 149.884,237.277 152.5,242.5C 152.369,243.376 152.702,244.043 153.5,244.5C 161.697,247.151 169.864,247.151 178,244.5C 179.759,241.392 180.592,238.059 180.5,234.5C 182.833,236.167 184.833,238.167 186.5,240.5C 187.6,241.605 188.267,242.938 188.5,244.5C 185.422,254.745 178.756,261.579 168.5,265C 162.235,266.484 155.902,266.818 149.5,266C 145.259,265.213 141.592,263.379 138.5,260.5C 140.354,260.39 142.354,260.057 144.5,259.5C 146.96,253.739 147.793,247.739 147,241.5C 144.672,240.001 142.505,238.334 140.5,236.5C 141.11,235.609 141.443,234.609 141.5,233.5C 144.687,230.407 148.354,228.073 152.5,226.5 Z"/></g>
<g><path style="opacity:1" fill="#eccbb7" d="M 237.5,235.5 C 238.517,238.694 239.85,241.861 241.5,245C 248.099,246.496 254.766,246.829 261.5,246C 263.491,245.626 265.158,244.793 266.5,243.5C 269.206,243.312 271.539,242.312 273.5,240.5C 274.287,247.782 275.954,254.782 278.5,261.5C 275.84,263.497 272.84,264.997 269.5,266C 249.171,269.769 236.171,261.935 230.5,242.5C 231.5,242.167 232.167,241.5 232.5,240.5C 233.833,238.5 235.5,236.833 237.5,235.5 Z"/></g>
<g><path style="opacity:1" fill="#dfb294" d="M 238.5,264.5 C 242.788,266.814 247.122,268.814 251.5,270.5C 223.833,270.5 196.167,270.5 168.5,270.5C 174.948,268.105 180.614,264.439 185.5,259.5C 185.938,259.435 186.272,259.601 186.5,260C 185.121,263.767 182.787,266.767 179.5,269C 183.793,270.202 187.293,269.035 190,265.5C 192.006,260.814 194.506,256.481 197.5,252.5C 197.956,246.089 198.79,239.756 200,233.5C 200.903,232.299 202.069,231.465 203.5,231C 207.167,230.333 210.833,230.333 214.5,231C 218.02,231.504 220.52,233.337 222,236.5C 220.952,249.874 225.452,260.708 235.5,269C 240.917,269.79 241.584,268.623 237.5,265.5C 237.624,264.893 237.957,264.56 238.5,264.5 Z"/></g>
<g><path style="opacity:1" fill="#f0c4a7" d="M 197.5,252.5 C 198.222,252.082 198.722,251.416 199,250.5C 199.803,244.947 200.636,239.447 201.5,234C 206.864,233.171 212.198,233.337 217.5,234.5C 219.882,242.413 221.882,250.413 223.5,258.5C 218.791,259.103 214.291,260.437 210,262.5C 206.183,261.005 202.35,259.505 198.5,258C 197.594,256.301 197.261,254.467 197.5,252.5 Z"/></g>
<g><path style="opacity:1" fill="#d1a486" d="M 315.5,257.5 C 315.152,261.557 314.486,265.557 313.5,269.5C 299.579,270.482 285.579,270.815 271.5,270.5C 272.568,269.566 273.901,269.232 275.5,269.5C 284.5,269.5 293.5,269.5 302.5,269.5C 304.686,268.177 306.186,266.177 307,263.5C 307.981,256.058 310.148,249.058 313.5,242.5C 315.462,241.146 316.462,241.813 316.5,244.5C 315.703,248.798 315.37,253.132 315.5,257.5 Z"/></g>
<g><path style="opacity:0.004" fill="#000000" d="M 89.5,268.5 C 90.8333,269.167 90.8333,269.167 89.5,268.5 Z"/></g>
<g><path style="opacity:1" fill="#dbdee0" d="M 105.5,269.5 C 119.755,270.482 134.088,270.816 148.5,270.5C 155.167,270.5 161.833,270.5 168.5,270.5C 196.167,270.5 223.833,270.5 251.5,270.5C 258.167,270.5 264.833,270.5 271.5,270.5C 285.579,270.815 299.579,270.482 313.5,269.5C 317.5,269.5 321.5,269.5 325.5,269.5C 325.712,271.384 326.712,272.717 328.5,273.5C 248.836,274.5 169.169,274.833 89.5,274.5C 89.5,273.167 89.5,271.833 89.5,270.5C 91.1561,269.854 92.8228,269.187 94.5,268.5C 98.1178,269.346 101.785,269.68 105.5,269.5 Z"/></g>
<g><path style="opacity:0.004" fill="#000000" d="M 84.5,276.5 C 83.8333,275.167 83.8333,275.167 84.5,276.5 Z"/></g>
<g><path style="opacity:1" fill="#bec0c5" d="M 330.5,272.5 C 331.833,274.5 331.833,276.5 330.5,278.5C 329.883,278.611 329.383,278.944 329,279.5C 329.114,293.198 327.614,306.698 324.5,320C 322.855,321.032 322.522,322.199 323.5,323.5C 321.641,323.112 319.641,323.112 317.5,323.5C 316.205,322.902 314.872,322.402 313.5,322C 314.654,321.086 314.487,320.253 313,319.5C 312.275,320.059 311.442,320.392 310.5,320.5C 309.214,320.148 308.381,319.482 308,318.5C 306.779,319.272 305.779,320.272 305,321.5C 303.667,320.833 302.667,319.833 302,318.5C 300.442,319.345 299.442,318.679 299,316.5C 298,317.833 297,317.833 296,316.5C 295.411,318.863 293.911,319.863 291.5,319.5C 291.785,317.712 291.452,316.045 290.5,314.5C 289.304,314.846 289.304,315.346 290.5,316C 289.451,316.492 288.451,316.326 287.5,315.5C 286.833,316.167 286.167,316.833 285.5,317.5C 284.936,315.982 283.769,314.316 282,312.5C 280.886,316.299 279.553,316.299 278,312.5C 277.086,316.185 276.419,315.852 276,311.5C 275.333,312.167 274.667,312.833 274,313.5C 271.723,309.453 270.056,309.786 269,314.5C 266.6,309.413 263.6,308.746 260,312.5C 259.869,308.608 258.369,307.775 255.5,310C 257.901,310.805 257.734,311.638 255,312.5C 253.354,310.945 253.021,309.279 254,307.5C 253.333,308.167 252.667,308.833 252,309.5C 251,308.5 250,307.5 249,306.5C 247.915,307.293 246.748,307.96 245.5,308.5C 244.796,306.899 243.629,305.565 242,304.5C 241.612,305.428 240.945,306.095 240,306.5C 239.454,305.711 238.787,304.711 238,303.5C 237.751,304.624 237.251,305.624 236.5,306.5C 235.169,305.408 234.336,304.074 234,302.5C 233.311,303.357 232.478,304.023 231.5,304.5C 230.28,303.289 229.113,303.289 228,304.5C 227.395,302.519 226.395,302.185 225,303.5C 222.843,300.922 221.677,300.922 221.5,303.5C 220.5,303 219.5,302.5 218.5,302C 219.696,301.346 219.696,300.846 218.5,300.5C 216.902,301.485 215.235,301.651 213.5,301C 214.5,300.667 215.5,300.333 216.5,300C 214.623,299.424 212.789,299.591 211,300.5C 208.929,299.179 206.929,298.179 205,297.5C 203.957,301.226 203.457,300.893 203.5,296.5C 201.856,296.714 200.356,296.38 199,295.5C 198.667,296.167 198.333,296.833 198,297.5C 195.551,297.063 193.217,297.063 191,297.5C 189.647,296.315 188.48,294.981 187.5,293.5C 186.037,293.632 184.537,293.965 183,294.5C 181.341,293.02 179.508,291.686 177.5,290.5C 174.43,292.623 171.43,292.29 168.5,289.5C 167.749,290.376 167.249,291.376 167,292.5C 166.365,288.898 165.032,288.232 163,290.5C 161.296,289.547 159.63,288.547 158,287.5C 155.576,289.161 153.742,288.661 152.5,286C 152.833,285.667 153.167,285.333 153.5,285C 149.973,284.118 149.307,284.618 151.5,286.5C 150.758,287.287 149.925,287.953 149,288.5C 148.667,286.833 148.333,285.167 148,283.5C 143.939,284.628 140.272,284.628 137,283.5C 136.193,287.449 135.693,287.449 135.5,283.5C 134.448,283.649 133.448,283.483 132.5,283C 133.833,282.333 135.167,281.667 136.5,281C 136,280.833 135.5,280.667 135,280.5C 133.85,281.424 132.85,281.424 132,280.5C 130.846,281.743 129.512,282.743 128,283.5C 126.667,283.5 125.333,283.5 124,283.5C 122.79,280.408 120.456,278.741 117,278.5C 113.971,278.816 110.971,279.15 108,279.5C 100.76,278.974 93.5932,277.974 86.5,276.5C 86.5,275.833 86.5,275.167 86.5,274.5C 87.1103,272.566 88.1103,270.899 89.5,269.5C 89.5,269.833 89.5,270.167 89.5,270.5C 89.5,271.833 89.5,273.167 89.5,274.5C 169.169,274.833 248.836,274.5 328.5,273.5C 326.712,272.717 325.712,271.384 325.5,269.5C 325.897,268.475 326.563,268.308 327.5,269C 327.167,269.333 326.833,269.667 326.5,270C 328.32,270.2 329.653,271.034 330.5,272.5 Z"/></g>
<g><path style="opacity:0.004" fill="#000000" d="M 84.5,291.5 C 83.4017,290.399 83.235,289.066 84,287.5C 84.49,288.793 84.6567,290.127 84.5,291.5 Z"/></g>
<g><path style="opacity:0.004" fill="#000000" d="M 84.5,292.5 C 83.8333,293.167 83.8333,293.167 84.5,292.5 Z"/></g>
<g><path style="opacity:1" fill="#97999e" d="M 84.5,276.5 C 84.8333,276.5 85.1667,276.5 85.5,276.5C 86.7277,280.536 87.7277,284.536 88.5,288.5C 90.4444,308.496 92.2777,328.496 94,348.5C 94.7724,349.849 95.9391,350.682 97.5,351C 94.9485,352.516 95.2819,353.349 98.5,353.5C 99.8132,349.694 100.98,350.027 102,354.5C 102.667,353.833 103.333,353.167 104,352.5C 103.021,354.279 103.354,355.945 105,357.5C 105.19,352.363 106.524,351.697 109,355.5C 109.333,354.833 109.667,354.167 110,353.5C 110.333,354.833 110.667,356.167 111,357.5C 111.333,356.833 111.667,356.167 112,355.5C 112.667,356.833 113.333,358.167 114,359.5C 114.551,356.443 116.217,356.11 119,358.5C 120.16,356.203 121.16,356.536 122,359.5C 122.953,357.408 124.286,357.075 126,358.5C 126.333,357.833 126.667,357.167 127,356.5C 127.741,360.185 129.241,360.851 131.5,358.5C 131.833,359.167 132.167,359.833 132.5,360.5C 133.306,357.638 134.639,357.138 136.5,359C 134.842,359.725 134.342,360.892 135,362.5C 136.019,361.313 137.186,360.313 138.5,359.5C 138.5,360.5 138.5,361.5 138.5,362.5C 139.086,362.291 139.586,361.957 140,361.5C 141.784,364.003 143.451,364.003 145,361.5C 145.915,362.328 146.581,363.328 147,364.5C 147.725,362.842 148.892,362.342 150.5,363C 149.216,364.297 149.383,365.464 151,366.5C 152.487,365.747 152.654,364.914 151.5,364C 153.075,364.379 154.575,364.212 156,363.5C 157.333,364.167 158.333,365.167 159,366.5C 159.875,364.487 161.209,364.487 163,366.5C 163.333,366.167 163.667,365.833 164,365.5C 166.333,367.167 168.667,368.833 171,370.5C 171.413,365.087 172.58,364.587 174.5,369C 176.96,369.981 179.46,370.815 182,371.5C 183.326,371.245 184.326,370.578 185,369.5C 185.667,370.833 186.333,370.833 187,369.5C 187.333,370.5 187.667,371.5 188,372.5C 189.865,370.145 192.031,369.978 194.5,372C 192.833,372.333 191.167,372.667 189.5,373C 190.5,373.5 191.5,374 192.5,374.5C 193.425,373.359 194.259,373.359 195,374.5C 195.368,373.09 196.201,372.09 197.5,371.5C 200.143,372.976 202.31,374.976 204,377.5C 204,376.167 204,374.833 204,373.5C 204.333,373.833 204.667,374.167 205,374.5C 205.71,373.027 206.876,372.36 208.5,372.5C 208.773,374.451 208.107,375.951 206.5,377C 208.135,377.54 209.468,377.04 210.5,375.5C 211.192,376.025 211.692,376.692 212,377.5C 214.17,378.006 216.504,378.006 219,377.5C 221.35,378.504 223.684,379.504 226,380.5C 226.333,379.833 226.667,379.167 227,378.5C 228.491,380.004 230.324,380.837 232.5,381C 231.304,381.654 231.304,382.154 232.5,382.5C 234.747,380.491 236.58,381.158 238,384.5C 240.075,382.352 242.408,382.018 245,383.5C 246.676,382.939 248.009,381.939 249,380.5C 250.621,382.493 252.287,384.493 254,386.5C 255.857,382.62 257.19,382.954 258,387.5C 259.333,386.833 260.333,385.833 261,384.5C 262.067,385.191 263.234,385.691 264.5,386C 263.552,386.483 262.552,386.649 261.5,386.5C 261.67,387.822 261.337,388.989 260.5,390C 261.448,390.483 262.448,390.649 263.5,390.5C 263.5,389.5 263.5,388.5 263.5,387.5C 268.821,386.979 273.821,387.979 278.5,390.5C 279.192,389.975 279.692,389.308 280,388.5C 280.583,390.002 281.416,391.335 282.5,392.5C 282.833,391.833 283.167,391.167 283.5,390.5C 285.638,391.429 286.804,393.096 287,395.5C 289.667,392.833 292.333,392.833 295,395.5C 295.725,393.842 296.892,393.342 298.5,394C 295.736,395.544 295.903,396.711 299,397.5C 299.098,395.381 299.931,393.714 301.5,392.5C 302.251,393.376 302.751,394.376 303,395.5C 305.855,392.476 307.855,393.476 309,398.5C 309.551,395.443 311.217,395.11 314,397.5C 316.399,397.028 318.399,398.028 320,400.5C 319.577,398.124 320.411,395.957 322.5,394C 322.167,393.667 321.833,393.333 321.5,393C 324.18,380.692 325.513,368.192 325.5,355.5C 326.997,344.542 328.331,333.542 329.5,322.5C 330.183,322.137 330.85,321.804 331.5,321.5C 332.443,328.144 332.609,334.811 332,341.5C 331.667,337.167 331.333,332.833 331,328.5C 330.5,336.493 330.334,344.493 330.5,352.5C 330.167,352.5 329.833,352.5 329.5,352.5C 328.246,364.314 327.579,376.314 327.5,388.5C 326.916,390.743 325.75,392.743 324,394.5C 322.964,397.753 322.297,401.086 322,404.5C 321.402,407.308 320.235,409.808 318.5,412C 310.281,412.424 302.115,412.591 294,412.5C 288.29,412.235 282.79,411.235 277.5,409.5C 274.96,411.139 272.793,410.806 271,408.5C 269.981,409.687 268.814,410.687 267.5,411.5C 266.808,410.975 266.308,410.308 266,409.5C 264.013,410.218 262.179,411.218 260.5,412.5C 257.241,411.471 253.741,411.471 250,412.5C 247.379,411 244.712,410.666 242,411.5C 240.983,408.972 239.816,408.972 238.5,411.5C 237.833,410.833 237.167,410.167 236.5,409.5C 234.724,411.447 232.724,411.78 230.5,410.5C 231.242,408.65 232.242,407.984 233.5,408.5C 232.271,407.719 230.938,407.219 229.5,407C 230.696,406.346 230.696,405.846 229.5,405.5C 228.354,406.145 227.354,406.978 226.5,408C 227.517,409.049 227.684,410.216 227,411.5C 226.15,410.576 225.15,410.576 224,411.5C 222.341,410.02 220.508,408.686 218.5,407.5C 216.902,409.973 215.402,409.973 214,407.5C 213.667,407.833 213.333,408.167 213,408.5C 212.544,407.256 213.044,406.423 214.5,406C 214,405.5 213.5,405 213,404.5C 212,405.833 211,405.833 210,404.5C 207.302,408.454 206.302,408.121 207,403.5C 205.284,404.552 204.284,403.886 204,401.5C 202.333,402.5 201,403.833 200,405.5C 199.667,404.167 199.333,402.833 199,401.5C 197.004,403.05 194.838,404.384 192.5,405.5C 189.486,403.347 187.319,401.013 186,398.5C 184.415,399.376 183.415,400.709 183,402.5C 181.053,399.014 178.72,398.681 176,401.5C 174.015,400.584 172.015,398.917 170,396.5C 168.57,396.694 167.07,396.694 165.5,396.5C 164.808,397.025 164.308,397.692 164,398.5C 163.667,398.167 163.333,397.833 163,397.5C 162.576,401.19 161.742,401.357 160.5,398C 160.957,397.586 161.291,397.086 161.5,396.5C 159.887,395.573 158.221,394.739 156.5,394C 157.711,393.107 157.711,392.274 156.5,391.5C 154.65,392.242 153.984,393.242 154.5,394.5C 153.167,393.167 151.833,393.167 150.5,394.5C 149.833,393.833 149.167,393.167 148.5,392.5C 148.089,393.262 147.923,394.262 148,395.5C 147,394.167 146,392.833 145,391.5C 144.333,392.833 143.667,394.167 143,395.5C 140.887,393.729 141.053,392.229 143.5,391C 142.551,390.383 141.718,390.549 141,391.5C 140.915,393.085 140.749,394.418 140.5,395.5C 138.729,394.965 138.396,394.131 139.5,393C 137.45,392.474 135.617,391.641 134,390.5C 133.085,391.328 132.419,392.328 132,393.5C 131.915,391.915 131.749,390.582 131.5,389.5C 128.947,389.706 126.447,390.039 124,390.5C 123.13,389.892 122.63,389.059 122.5,388C 123.038,385.898 124.038,385.065 125.5,385.5C 123.926,384.369 122.259,384.202 120.5,385C 121.34,386.666 120.84,386.833 119,385.5C 118.667,386.5 118.333,387.5 118,388.5C 117.333,387.167 116.667,385.833 116,384.5C 115.586,384.957 115.086,385.291 114.5,385.5C 111.263,384.048 107.93,382.881 104.5,382C 105.696,381.346 105.696,380.846 104.5,380.5C 103.749,381.376 103.249,382.376 103,383.5C 102.692,382.692 102.192,382.025 101.5,381.5C 97.2031,384.494 96.2031,383.994 98.5,380C 97.4939,378.662 96.4939,377.329 95.5,376C 96.376,374.414 97.376,372.914 98.5,371.5C 97.2815,371.891 96.4482,371.224 96,369.5C 92.2493,349.65 89.7493,330.15 88.5,311C 87.9498,308.842 86.9498,308.342 85.5,309.5C 85.8222,303.642 85.4889,297.975 84.5,292.5C 84.5,292.167 84.5,291.833 84.5,291.5C 84.9868,286.69 84.9868,281.69 84.5,276.5 Z"/></g>
<g><path style="opacity:0.004" fill="#000000" d="M 332.5,324.5 C 333.833,325.167 333.833,325.167 332.5,324.5 Z"/></g>
<g><path style="opacity:1" fill="#a1a3a8" d="M 88.5,288.5 C 89.9433,298.03 91.4433,307.697 93,317.5C 94.1475,316.542 95.1475,316.875 96,318.5C 96.0492,323.325 97.7159,323.659 101,319.5C 103.803,321.094 106.636,322.761 109.5,324.5C 111.163,322.199 112.997,322.199 115,324.5C 116.398,323.949 117.732,323.616 119,323.5C 119.667,327.5 120.333,327.5 121,323.5C 124.973,325.474 128.64,327.808 132,330.5C 132.945,330.095 133.612,329.428 134,328.5C 135.333,329.833 136.667,329.833 138,328.5C 140.26,329.673 142.426,331.006 144.5,332.5C 146.51,331.651 148.177,332.318 149.5,334.5C 149.92,330.578 151.42,330.578 154,334.5C 157.29,334.574 160.457,334.24 163.5,333.5C 164.281,334.729 164.781,336.062 165,337.5C 166.594,334.191 168.594,334.191 171,337.5C 171.333,336.833 171.667,336.167 172,335.5C 174,336.167 175.333,337.5 176,339.5C 176.308,338.692 176.808,338.025 177.5,337.5C 178.528,339.361 180.028,340.695 182,341.5C 182.617,340.551 182.451,339.718 181.5,339C 183.199,338.607 184.699,339.107 186,340.5C 186.772,340.355 187.439,340.022 188,339.5C 188.583,341.002 189.416,342.335 190.5,343.5C 191.386,342.675 191.719,341.675 191.5,340.5C 192.959,340.433 194.292,340.766 195.5,341.5C 193.716,349.981 196.049,357.148 202.5,363C 207.5,362.333 212.5,362.333 217.5,363C 220.087,361.005 222.087,358.505 223.5,355.5C 225.43,352.038 228.096,351.538 231.5,354C 230.304,354.654 230.304,355.154 231.5,355.5C 233.167,355.5 234.833,355.5 236.5,355.5C 237.192,356.025 237.692,356.692 238,357.5C 239.101,355.606 240.434,354.939 242,355.5C 242.47,359.543 243.97,360.21 246.5,357.5C 251.76,359.045 257.093,360.378 262.5,361.5C 263.554,361.32 264.554,360.987 265.5,360.5C 265.296,361.529 265.796,362.529 267,363.5C 267.333,362.833 267.667,362.167 268,361.5C 269.095,366.39 269.762,366.39 270,361.5C 271.779,364.276 272.779,363.943 273,360.5C 274.333,363.167 275.667,363.167 277,360.5C 277.483,361.448 277.649,362.448 277.5,363.5C 281.333,364.961 285.333,366.128 289.5,367C 290.126,367.75 290.626,368.584 291,369.5C 291.308,368.692 291.808,368.025 292.5,367.5C 293.5,368.833 294.5,368.833 295.5,367.5C 296.478,367.977 297.311,368.643 298,369.5C 298.333,369.167 298.667,368.833 299,368.5C 300.204,369.471 300.704,370.471 300.5,371.5C 301.216,370.689 302.05,370.022 303,369.5C 304.333,370.833 305.667,370.833 307,369.5C 308.688,371.519 310.688,373.186 313,374.5C 313.333,373.833 313.667,373.167 314,372.5C 315.892,373.13 317.559,374.13 319,375.5C 319.615,373.884 320.615,372.551 322,371.5C 322.432,365.87 323.598,360.537 325.5,355.5C 325.513,368.192 324.18,380.692 321.5,393C 321.833,393.333 322.167,393.667 322.5,394C 320.411,395.957 319.577,398.124 320,400.5C 318.399,398.028 316.399,397.028 314,397.5C 311.217,395.11 309.551,395.443 309,398.5C 307.855,393.476 305.855,392.476 303,395.5C 302.751,394.376 302.251,393.376 301.5,392.5C 299.931,393.714 299.098,395.381 299,397.5C 295.903,396.711 295.736,395.544 298.5,394C 296.892,393.342 295.725,393.842 295,395.5C 292.333,392.833 289.667,392.833 287,395.5C 286.804,393.096 285.638,391.429 283.5,390.5C 283.167,391.167 282.833,391.833 282.5,392.5C 281.416,391.335 280.583,390.002 280,388.5C 279.692,389.308 279.192,389.975 278.5,390.5C 273.821,387.979 268.821,386.979 263.5,387.5C 263.5,388.5 263.5,389.5 263.5,390.5C 262.448,390.649 261.448,390.483 260.5,390C 261.337,388.989 261.67,387.822 261.5,386.5C 262.552,386.649 263.552,386.483 264.5,386C 263.234,385.691 262.067,385.191 261,384.5C 260.333,385.833 259.333,386.833 258,387.5C 257.19,382.954 255.857,382.62 254,386.5C 252.287,384.493 250.621,382.493 249,380.5C 248.009,381.939 246.676,382.939 245,383.5C 242.408,382.018 240.075,382.352 238,384.5C 236.58,381.158 234.747,380.491 232.5,382.5C 231.304,382.154 231.304,381.654 232.5,381C 230.324,380.837 228.491,380.004 227,378.5C 226.667,379.167 226.333,379.833 226,380.5C 223.684,379.504 221.35,378.504 219,377.5C 216.504,378.006 214.17,378.006 212,377.5C 211.692,376.692 211.192,376.025 210.5,375.5C 209.468,377.04 208.135,377.54 206.5,377C 208.107,375.951 208.773,374.451 208.5,372.5C 206.876,372.36 205.71,373.027 205,374.5C 204.667,374.167 204.333,373.833 204,373.5C 204,374.833 204,376.167 204,377.5C 202.31,374.976 200.143,372.976 197.5,371.5C 196.201,372.09 195.368,373.09 195,374.5C 194.259,373.359 193.425,373.359 192.5,374.5C 191.5,374 190.5,373.5 189.5,373C 191.167,372.667 192.833,372.333 194.5,372C 192.031,369.978 189.865,370.145 188,372.5C 187.667,371.5 187.333,370.5 187,369.5C 186.333,370.833 185.667,370.833 185,369.5C 184.326,370.578 183.326,371.245 182,371.5C 179.46,370.815 176.96,369.981 174.5,369C 172.58,364.587 171.413,365.087 171,370.5C 168.667,368.833 166.333,367.167 164,365.5C 163.667,365.833 163.333,366.167 163,366.5C 161.209,364.487 159.875,364.487 159,366.5C 158.333,365.167 157.333,364.167 156,363.5C 154.575,364.212 153.075,364.379 151.5,364C 152.654,364.914 152.487,365.747 151,366.5C 149.383,365.464 149.216,364.297 150.5,363C 148.892,362.342 147.725,362.842 147,364.5C 146.581,363.328 145.915,362.328 145,361.5C 143.451,364.003 141.784,364.003 140,361.5C 139.586,361.957 139.086,362.291 138.5,362.5C 138.5,361.5 138.5,360.5 138.5,359.5C 137.186,360.313 136.019,361.313 135,362.5C 134.342,360.892 134.842,359.725 136.5,359C 134.639,357.138 133.306,357.638 132.5,360.5C 132.167,359.833 131.833,359.167 131.5,358.5C 129.241,360.851 127.741,360.185 127,356.5C 126.667,357.167 126.333,357.833 126,358.5C 124.286,357.075 122.953,357.408 122,359.5C 121.16,356.536 120.16,356.203 119,358.5C 116.217,356.11 114.551,356.443 114,359.5C 113.333,358.167 112.667,356.833 112,355.5C 111.667,356.167 111.333,356.833 111,357.5C 110.667,356.167 110.333,354.833 110,353.5C 109.667,354.167 109.333,354.833 109,355.5C 106.524,351.697 105.19,352.363 105,357.5C 103.354,355.945 103.021,354.279 104,352.5C 103.333,353.167 102.667,353.833 102,354.5C 100.98,350.027 99.8132,349.694 98.5,353.5C 95.2819,353.349 94.9485,352.516 97.5,351C 95.9391,350.682 94.7724,349.849 94,348.5C 92.2777,328.496 90.4444,308.496 88.5,288.5 Z"/></g>
<g><path style="opacity:1" fill="#adafb4" d="M 331.5,321.5 C 330.85,321.804 330.183,322.137 329.5,322.5C 328.331,333.542 326.997,344.542 325.5,355.5C 323.598,360.537 322.432,365.87 322,371.5C 320.615,372.551 319.615,373.884 319,375.5C 317.559,374.13 315.892,373.13 314,372.5C 313.667,373.167 313.333,373.833 313,374.5C 310.688,373.186 308.688,371.519 307,369.5C 305.667,370.833 304.333,370.833 303,369.5C 302.05,370.022 301.216,370.689 300.5,371.5C 300.704,370.471 300.204,369.471 299,368.5C 298.667,368.833 298.333,369.167 298,369.5C 297.311,368.643 296.478,367.977 295.5,367.5C 294.5,368.833 293.5,368.833 292.5,367.5C 291.808,368.025 291.308,368.692 291,369.5C 290.626,368.584 290.126,367.75 289.5,367C 285.333,366.128 281.333,364.961 277.5,363.5C 277.649,362.448 277.483,361.448 277,360.5C 275.667,363.167 274.333,363.167 273,360.5C 272.779,363.943 271.779,364.276 270,361.5C 269.762,366.39 269.095,366.39 268,361.5C 267.667,362.167 267.333,362.833 267,363.5C 265.796,362.529 265.296,361.529 265.5,360.5C 264.554,360.987 263.554,361.32 262.5,361.5C 257.093,360.378 251.76,359.045 246.5,357.5C 243.97,360.21 242.47,359.543 242,355.5C 240.434,354.939 239.101,355.606 238,357.5C 237.692,356.692 237.192,356.025 236.5,355.5C 234.833,355.5 233.167,355.5 231.5,355.5C 230.304,355.154 230.304,354.654 231.5,354C 228.096,351.538 225.43,352.038 223.5,355.5C 221.378,352.916 220.044,349.916 219.5,346.5C 219.679,343.809 220.679,341.475 222.5,339.5C 220.941,337.305 218.774,336.305 216,336.5C 211.829,337.779 207.662,337.779 203.5,336.5C 199.807,336.672 197.141,338.339 195.5,341.5C 194.292,340.766 192.959,340.433 191.5,340.5C 191.719,341.675 191.386,342.675 190.5,343.5C 189.416,342.335 188.583,341.002 188,339.5C 187.439,340.022 186.772,340.355 186,340.5C 184.699,339.107 183.199,338.607 181.5,339C 182.451,339.718 182.617,340.551 182,341.5C 180.028,340.695 178.528,339.361 177.5,337.5C 176.808,338.025 176.308,338.692 176,339.5C 175.333,337.5 174,336.167 172,335.5C 171.667,336.167 171.333,336.833 171,337.5C 168.594,334.191 166.594,334.191 165,337.5C 164.781,336.062 164.281,334.729 163.5,333.5C 160.457,334.24 157.29,334.574 154,334.5C 151.42,330.578 149.92,330.578 149.5,334.5C 148.177,332.318 146.51,331.651 144.5,332.5C 142.426,331.006 140.26,329.673 138,328.5C 136.667,329.833 135.333,329.833 134,328.5C 133.612,329.428 132.945,330.095 132,330.5C 128.64,327.808 124.973,325.474 121,323.5C 120.333,327.5 119.667,327.5 119,323.5C 117.732,323.616 116.398,323.949 115,324.5C 112.997,322.199 111.163,322.199 109.5,324.5C 106.636,322.761 103.803,321.094 101,319.5C 97.7159,323.659 96.0492,323.325 96,318.5C 95.1475,316.875 94.1475,316.542 93,317.5C 91.4433,307.697 89.9433,298.03 88.5,288.5C 87.7277,284.536 86.7277,280.536 85.5,276.5C 85.3284,275.508 85.6618,274.842 86.5,274.5C 86.5,275.167 86.5,275.833 86.5,276.5C 87.8664,278.271 89.3664,279.938 91,281.5C 91.1749,285.766 92.1749,289.766 94,293.5C 94.6667,292.833 95.3333,292.167 96,291.5C 97.3894,293.227 99.0561,294.561 101,295.5C 102.44,294.393 103.94,294.393 105.5,295.5C 107.029,295.471 108.196,294.804 109,293.5C 110.333,294.167 111.333,295.167 112,296.5C 113,295.167 114,295.167 115,296.5C 115.667,295.833 116.333,295.167 117,294.5C 117.951,299.475 120.284,300.475 124,297.5C 125.845,299.35 127.845,299.683 130,298.5C 131.46,300.422 133.127,301.089 135,300.5C 135.691,302.891 136.691,302.891 138,300.5C 138.197,305.178 139.197,305.512 141,301.5C 143.355,304.235 145.688,304.235 148,301.5C 150.168,303.455 152.502,304.121 155,303.5C 156.385,304.551 157.385,305.884 158,307.5C 158.333,306.5 158.667,305.5 159,304.5C 160.532,306.562 162.532,307.896 165,308.5C 165.691,306.109 166.691,306.109 168,308.5C 168.626,306.009 169.459,306.009 170.5,308.5C 171.962,307.529 173.295,307.862 174.5,309.5C 177.366,310.208 180.2,310.875 183,311.5C 186.18,312.344 189.18,312.344 192,311.5C 193.044,312.623 193.71,313.956 194,315.5C 194.333,314.167 194.667,312.833 195,311.5C 196.803,316.765 199.47,317.431 203,313.5C 202.339,315.035 202.006,316.702 202,318.5C 203,317.167 204,317.167 205,318.5C 205.49,317.207 205.657,315.873 205.5,314.5C 208.598,314.413 208.932,314.913 206.5,316C 208.017,318.598 210.017,319.098 212.5,317.5C 214.003,318.523 215.503,319.523 217,320.5C 217.5,320.333 218,320.167 218.5,320C 217.672,319.085 216.672,318.419 215.5,318C 216.167,317.833 216.833,317.667 217.5,317.5C 219.39,318.612 221.39,319.446 223.5,320C 224.071,321.205 224.738,322.372 225.5,323.5C 226.184,319.07 228.684,318.737 233,322.5C 235.8,321.557 238.634,321.724 241.5,323C 243.061,323.318 244.228,324.151 245,325.5C 245.667,322.833 246.333,322.833 247,325.5C 247.333,325.167 247.667,324.833 248,324.5C 249.085,325.293 250.252,325.96 251.5,326.5C 252.696,326.154 252.696,325.654 251.5,325C 254.475,324.287 256.975,325.121 259,327.5C 261.093,326.754 263.093,326.421 265,326.5C 265.652,328.723 267.152,329.89 269.5,330C 268.304,330.654 268.304,331.154 269.5,331.5C 271.51,329.829 273.843,329.162 276.5,329.5C 276.693,333.449 277.193,333.449 278,329.5C 279.582,330.96 280.915,332.627 282,334.5C 282.692,333.975 283.192,333.308 283.5,332.5C 282.674,331.549 282.508,330.549 283,329.5C 284.333,331.5 286,333.167 288,334.5C 290.176,334.572 292.176,334.238 294,333.5C 294.853,335.125 295.853,335.458 297,334.5C 299.2,336.831 301.2,336.831 303,334.5C 303.483,335.448 303.649,336.448 303.5,337.5C 305.144,337.714 306.644,337.38 308,336.5C 309.385,337.551 310.385,338.884 311,340.5C 311.991,339.061 313.324,338.061 315,337.5C 316.355,340.732 318.022,341.398 320,339.5C 320.725,341.158 321.892,341.658 323.5,341C 322.692,340.692 322.025,340.192 321.5,339.5C 322.718,339.891 323.552,339.224 324,337.5C 328.274,318.096 330.441,298.429 330.5,278.5C 331.833,276.5 331.833,274.5 330.5,272.5C 331.117,272.389 331.617,272.056 332,271.5C 333.006,275.598 333.506,279.764 333.5,284C 332.905,296.512 332.239,309.012 331.5,321.5 Z"/></g>
<g><path style="opacity:1" fill="#b6b8bd" d="M 86.5,276.5 C 93.5932,277.974 100.76,278.974 108,279.5C 110.971,279.15 113.971,278.816 117,278.5C 120.456,278.741 122.79,280.408 124,283.5C 125.333,283.5 126.667,283.5 128,283.5C 129.512,282.743 130.846,281.743 132,280.5C 132.85,281.424 133.85,281.424 135,280.5C 135.5,280.667 136,280.833 136.5,281C 135.167,281.667 133.833,282.333 132.5,283C 133.448,283.483 134.448,283.649 135.5,283.5C 135.693,287.449 136.193,287.449 137,283.5C 140.272,284.628 143.939,284.628 148,283.5C 148.333,285.167 148.667,286.833 149,288.5C 149.925,287.953 150.758,287.287 151.5,286.5C 149.307,284.618 149.973,284.118 153.5,285C 153.167,285.333 152.833,285.667 152.5,286C 153.742,288.661 155.576,289.161 158,287.5C 159.63,288.547 161.296,289.547 163,290.5C 165.032,288.232 166.365,288.898 167,292.5C 167.249,291.376 167.749,290.376 168.5,289.5C 171.43,292.29 174.43,292.623 177.5,290.5C 179.508,291.686 181.341,293.02 183,294.5C 184.537,293.965 186.037,293.632 187.5,293.5C 188.48,294.981 189.647,296.315 191,297.5C 193.217,297.063 195.551,297.063 198,297.5C 198.333,296.833 198.667,296.167 199,295.5C 200.356,296.38 201.856,296.714 203.5,296.5C 203.457,300.893 203.957,301.226 205,297.5C 206.929,298.179 208.929,299.179 211,300.5C 212.789,299.591 214.623,299.424 216.5,300C 215.5,300.333 214.5,300.667 213.5,301C 215.235,301.651 216.902,301.485 218.5,300.5C 219.696,300.846 219.696,301.346 218.5,302C 219.5,302.5 220.5,303 221.5,303.5C 221.677,300.922 222.843,300.922 225,303.5C 226.395,302.185 227.395,302.519 228,304.5C 229.113,303.289 230.28,303.289 231.5,304.5C 232.478,304.023 233.311,303.357 234,302.5C 234.336,304.074 235.169,305.408 236.5,306.5C 237.251,305.624 237.751,304.624 238,303.5C 238.787,304.711 239.454,305.711 240,306.5C 240.945,306.095 241.612,305.428 242,304.5C 243.629,305.565 244.796,306.899 245.5,308.5C 246.748,307.96 247.915,307.293 249,306.5C 250,307.5 251,308.5 252,309.5C 252.667,308.833 253.333,308.167 254,307.5C 253.021,309.279 253.354,310.945 255,312.5C 257.734,311.638 257.901,310.805 255.5,310C 258.369,307.775 259.869,308.608 260,312.5C 263.6,308.746 266.6,309.413 269,314.5C 270.056,309.786 271.723,309.453 274,313.5C 274.667,312.833 275.333,312.167 276,311.5C 276.419,315.852 277.086,316.185 278,312.5C 279.553,316.299 280.886,316.299 282,312.5C 283.769,314.316 284.936,315.982 285.5,317.5C 286.167,316.833 286.833,316.167 287.5,315.5C 288.451,316.326 289.451,316.492 290.5,316C 289.304,315.346 289.304,314.846 290.5,314.5C 291.452,316.045 291.785,317.712 291.5,319.5C 293.911,319.863 295.411,318.863 296,316.5C 297,317.833 298,317.833 299,316.5C 299.442,318.679 300.442,319.345 302,318.5C 302.667,319.833 303.667,320.833 305,321.5C 305.779,320.272 306.779,319.272 308,318.5C 308.381,319.482 309.214,320.148 310.5,320.5C 311.442,320.392 312.275,320.059 313,319.5C 314.487,320.253 314.654,321.086 313.5,322C 314.872,322.402 316.205,322.902 317.5,323.5C 319.641,323.112 321.641,323.112 323.5,323.5C 322.522,322.199 322.855,321.032 324.5,320C 327.614,306.698 329.114,293.198 329,279.5C 329.383,278.944 329.883,278.611 330.5,278.5C 330.441,298.429 328.274,318.096 324,337.5C 323.552,339.224 322.718,339.891 321.5,339.5C 322.025,340.192 322.692,340.692 323.5,341C 321.892,341.658 320.725,341.158 320,339.5C 318.022,341.398 316.355,340.732 315,337.5C 313.324,338.061 311.991,339.061 311,340.5C 310.385,338.884 309.385,337.551 308,336.5C 306.644,337.38 305.144,337.714 303.5,337.5C 303.649,336.448 303.483,335.448 303,334.5C 301.2,336.831 299.2,336.831 297,334.5C 295.853,335.458 294.853,335.125 294,333.5C 292.176,334.238 290.176,334.572 288,334.5C 286,333.167 284.333,331.5 283,329.5C 282.508,330.549 282.674,331.549 283.5,332.5C 283.192,333.308 282.692,333.975 282,334.5C 280.915,332.627 279.582,330.96 278,329.5C 277.193,333.449 276.693,333.449 276.5,329.5C 273.843,329.162 271.51,329.829 269.5,331.5C 268.304,331.154 268.304,330.654 269.5,330C 267.152,329.89 265.652,328.723 265,326.5C 263.093,326.421 261.093,326.754 259,327.5C 256.975,325.121 254.475,324.287 251.5,325C 252.696,325.654 252.696,326.154 251.5,326.5C 250.252,325.96 249.085,325.293 248,324.5C 247.667,324.833 247.333,325.167 247,325.5C 246.333,322.833 245.667,322.833 245,325.5C 244.228,324.151 243.061,323.318 241.5,323C 238.634,321.724 235.8,321.557 233,322.5C 228.684,318.737 226.184,319.07 225.5,323.5C 224.738,322.372 224.071,321.205 223.5,320C 221.39,319.446 219.39,318.612 217.5,317.5C 216.833,317.667 216.167,317.833 215.5,318C 216.672,318.419 217.672,319.085 218.5,320C 218,320.167 217.5,320.333 217,320.5C 215.503,319.523 214.003,318.523 212.5,317.5C 210.017,319.098 208.017,318.598 206.5,316C 208.932,314.913 208.598,314.413 205.5,314.5C 205.657,315.873 205.49,317.207 205,318.5C 204,317.167 203,317.167 202,318.5C 202.006,316.702 202.339,315.035 203,313.5C 199.47,317.431 196.803,316.765 195,311.5C 194.667,312.833 194.333,314.167 194,315.5C 193.71,313.956 193.044,312.623 192,311.5C 189.18,312.344 186.18,312.344 183,311.5C 180.2,310.875 177.366,310.208 174.5,309.5C 173.295,307.862 171.962,307.529 170.5,308.5C 169.459,306.009 168.626,306.009 168,308.5C 166.691,306.109 165.691,306.109 165,308.5C 162.532,307.896 160.532,306.562 159,304.5C 158.667,305.5 158.333,306.5 158,307.5C 157.385,305.884 156.385,304.551 155,303.5C 152.502,304.121 150.168,303.455 148,301.5C 145.688,304.235 143.355,304.235 141,301.5C 139.197,305.512 138.197,305.178 138,300.5C 136.691,302.891 135.691,302.891 135,300.5C 133.127,301.089 131.46,300.422 130,298.5C 127.845,299.683 125.845,299.35 124,297.5C 120.284,300.475 117.951,299.475 117,294.5C 116.333,295.167 115.667,295.833 115,296.5C 114,295.167 113,295.167 112,296.5C 111.333,295.167 110.333,294.167 109,293.5C 108.196,294.804 107.029,295.471 105.5,295.5C 103.94,294.393 102.44,294.393 101,295.5C 99.0561,294.561 97.3894,293.227 96,291.5C 95.3333,292.167 94.6667,292.833 94,293.5C 92.1749,289.766 91.1749,285.766 91,281.5C 89.3664,279.938 87.8664,278.271 86.5,276.5 Z"/></g>
<g><path style="opacity:1" fill="#c7c9ce" d="M 223.5,355.5 C 222.087,358.505 220.087,361.005 217.5,363C 212.5,362.333 207.5,362.333 202.5,363C 196.049,357.148 193.716,349.981 195.5,341.5C 197.141,338.339 199.807,336.672 203.5,336.5C 207.662,337.779 211.829,337.779 216,336.5C 218.774,336.305 220.941,337.305 222.5,339.5C 220.679,341.475 219.679,343.809 219.5,346.5C 220.044,349.916 221.378,352.916 223.5,355.5 Z"/></g>
<g><path style="opacity:1" fill="#4d4d4d" d="M 88.5,349.5 C 89.8624,368.993 90.8624,388.66 91.5,408.5C 91.2771,413.052 92.9437,416.719 96.5,419.5C 77.8333,419.5 59.1667,419.5 40.5,419.5C 43.6535,403.103 47.6535,388.27 52.5,375C 51.5909,373.211 51.4242,371.377 52,369.5C 63.3346,363.121 75.5012,359.121 88.5,357.5C 88.5,354.833 88.5,352.167 88.5,349.5 Z"/></g>
<g><path style="opacity:1" fill="#4d4d4d" d="M 329.5,352.5 C 329.223,355.448 329.556,358.281 330.5,361C 339.029,363.065 347.362,365.732 355.5,369C 359.675,370.584 363.341,372.918 366.5,376C 365.978,376.561 365.645,377.228 365.5,378C 365.892,379.011 366.559,379.511 367.5,379.5C 366.4,383.442 366.233,387.442 367,391.5C 368.956,400.775 370.456,410.108 371.5,419.5C 354.833,419.5 338.167,419.5 321.5,419.5C 322.694,418.728 323.694,417.728 324.5,416.5C 325.09,415.234 325.59,413.901 326,412.5C 326.343,404.481 326.843,396.481 327.5,388.5C 327.579,376.314 328.246,364.314 329.5,352.5 Z"/></g>
<g><path style="opacity:1" fill="#393939" d="M 88.5,349.5 C 88.5,352.167 88.5,354.833 88.5,357.5C 75.5012,359.121 63.3346,363.121 52,369.5C 51.4242,371.377 51.5909,373.211 52.5,375C 47.6535,388.27 43.6535,403.103 40.5,419.5C 36.8333,419.5 33.1667,419.5 29.5,419.5C 34.2094,399.534 41.376,380.534 51,362.5C 62.7703,356.077 75.2703,351.743 88.5,349.5 Z"/></g>
<g><path style="opacity:1" fill="#393939" d="M 329.5,352.5 C 329.833,352.5 330.167,352.5 330.5,352.5C 338.762,355.537 347.096,358.703 355.5,362C 360.59,363.958 365.09,366.792 369,370.5C 375.479,386.436 380.645,402.769 384.5,419.5C 380.167,419.5 375.833,419.5 371.5,419.5C 370.456,410.108 368.956,400.775 367,391.5C 366.233,387.442 366.4,383.442 367.5,379.5C 366.559,379.511 365.892,379.011 365.5,378C 365.645,377.228 365.978,376.561 366.5,376C 363.341,372.918 359.675,370.584 355.5,369C 347.362,365.732 339.029,363.065 330.5,361C 329.556,358.281 329.223,355.448 329.5,352.5 Z"/></g>
<g><path style="opacity:1" fill="#8e9095" d="M 327.5,388.5 C 326.843,396.481 326.343,404.481 326,412.5C 325.59,413.901 325.09,415.234 324.5,416.5C 250.824,416.907 177.157,416.407 103.5,415C 101.392,414.64 99.3921,413.973 97.5,413C 95.8863,410.873 93.8863,409.373 91.5,408.5C 90.8624,388.66 89.8624,368.993 88.5,349.5C 87.2001,345.272 86.8668,341.105 87.5,337C 86.6886,327.664 86.0219,318.497 85.5,309.5C 86.9498,308.342 87.9498,308.842 88.5,311C 89.7493,330.15 92.2493,349.65 96,369.5C 96.4482,371.224 97.2815,371.891 98.5,371.5C 97.376,372.914 96.376,374.414 95.5,376C 96.4939,377.329 97.4939,378.662 98.5,380C 96.2031,383.994 97.2031,384.494 101.5,381.5C 102.192,382.025 102.692,382.692 103,383.5C 103.249,382.376 103.749,381.376 104.5,380.5C 105.696,380.846 105.696,381.346 104.5,382C 107.93,382.881 111.263,384.048 114.5,385.5C 115.086,385.291 115.586,384.957 116,384.5C 116.667,385.833 117.333,387.167 118,388.5C 118.333,387.5 118.667,386.5 119,385.5C 120.84,386.833 121.34,386.666 120.5,385C 122.259,384.202 123.926,384.369 125.5,385.5C 124.038,385.065 123.038,385.898 122.5,388C 122.63,389.059 123.13,389.892 124,390.5C 126.447,390.039 128.947,389.706 131.5,389.5C 131.749,390.582 131.915,391.915 132,393.5C 132.419,392.328 133.085,391.328 134,390.5C 135.617,391.641 137.45,392.474 139.5,393C 138.396,394.131 138.729,394.965 140.5,395.5C 140.749,394.418 140.915,393.085 141,391.5C 141.718,390.549 142.551,390.383 143.5,391C 141.053,392.229 140.887,393.729 143,395.5C 143.667,394.167 144.333,392.833 145,391.5C 146,392.833 147,394.167 148,395.5C 147.923,394.262 148.089,393.262 148.5,392.5C 149.167,393.167 149.833,393.833 150.5,394.5C 151.833,393.167 153.167,393.167 154.5,394.5C 153.984,393.242 154.65,392.242 156.5,391.5C 157.711,392.274 157.711,393.107 156.5,394C 158.221,394.739 159.887,395.573 161.5,396.5C 161.291,397.086 160.957,397.586 160.5,398C 161.742,401.357 162.576,401.19 163,397.5C 163.333,397.833 163.667,398.167 164,398.5C 164.308,397.692 164.808,397.025 165.5,396.5C 167.07,396.694 168.57,396.694 170,396.5C 172.015,398.917 174.015,400.584 176,401.5C 178.72,398.681 181.053,399.014 183,402.5C 183.415,400.709 184.415,399.376 186,398.5C 187.319,401.013 189.486,403.347 192.5,405.5C 194.838,404.384 197.004,403.05 199,401.5C 199.333,402.833 199.667,404.167 200,405.5C 201,403.833 202.333,402.5 204,401.5C 204.284,403.886 205.284,404.552 207,403.5C 206.302,408.121 207.302,408.454 210,404.5C 211,405.833 212,405.833 213,404.5C 213.5,405 214,405.5 214.5,406C 213.044,406.423 212.544,407.256 213,408.5C 213.333,408.167 213.667,407.833 214,407.5C 215.402,409.973 216.902,409.973 218.5,407.5C 220.508,408.686 222.341,410.02 224,411.5C 225.15,410.576 226.15,410.576 227,411.5C 227.684,410.216 227.517,409.049 226.5,408C 227.354,406.978 228.354,406.145 229.5,405.5C 230.696,405.846 230.696,406.346 229.5,407C 230.938,407.219 232.271,407.719 233.5,408.5C 232.242,407.984 231.242,408.65 230.5,410.5C 232.724,411.78 234.724,411.447 236.5,409.5C 237.167,410.167 237.833,410.833 238.5,411.5C 239.816,408.972 240.983,408.972 242,411.5C 244.712,410.666 247.379,411 250,412.5C 253.741,411.471 257.241,411.471 260.5,412.5C 262.179,411.218 264.013,410.218 266,409.5C 266.308,410.308 266.808,410.975 267.5,411.5C 268.814,410.687 269.981,409.687 271,408.5C 272.793,410.806 274.96,411.139 277.5,409.5C 282.79,411.235 288.29,412.235 294,412.5C 302.115,412.591 310.281,412.424 318.5,412C 320.235,409.808 321.402,407.308 322,404.5C 322.297,401.086 322.964,397.753 324,394.5C 325.75,392.743 326.916,390.743 327.5,388.5 Z"/></g>
<g><path style="opacity:1" fill="#6c6e72" d="M 91.5,408.5 C 93.8863,409.373 95.8863,410.873 97.5,413C 99.3921,413.973 101.392,414.64 103.5,415C 177.157,416.407 250.824,416.907 324.5,416.5C 323.694,417.728 322.694,418.728 321.5,419.5C 246.5,419.5 171.5,419.5 96.5,419.5C 92.9437,416.719 91.2771,413.052 91.5,408.5 Z"/></g>
</svg>
